<svg width="2560" height="1151" viewBox="0 0 2560 1151" fill="none" xmlns="http://www.w3.org/2000/svg">
<rect width="2560" height="1151" fill="#212C4F"/>
<path d="M0 109.909C277 168.582 433 149.736 720 109.909C934.818 80.0981 1214.06 78.7633 1442 92.066C2079 129.242 2208 147.501 2560 109.909V255.91L0 255.91V109.909Z" fill="white"/>
<path d="M0 411.16C316 411.16 444 484 884 376C1324 268 1320.29 358.966 1538 395.251C1814 441.251 2156 513.252 2560 411.16V557.161L0 557.161V411.16Z" fill="white"/>
<path d="M0 805.658C158 763 213 752 363 752C513 752 855.555 867.001 1154 867.001C1440 867.001 1626 714 2560 805.659V951.66L0 951.66V805.658Z" fill="white"/>
</svg>
